<?xml version="1.0" encoding="UTF-8"?>
<svg version="1.1" viewBox="0 0 2000 2000" width="1280" height="1280" xmlns="http://www.w3.org/2000/svg">
<path transform="translate(1025,179)" d="m0 0h21l18 1 9 2 14 2 24 5 21 6 16 6 21 11 10 8 7 7 6 10 3 7 3 13 4 49v15l-3 9-7 8-12 5h-17l-12-4-11-4-5-1-1 8v16l-2 20-3 40-3 39-2 8-3 5-6 16 2 5 3 4 3 13 1 17-1 14-4 11-6 8-9 8-4 4 1 6 7 3 4 5 5 29 4 7 9 15 8 15v2h2l7 14 10 18 6 10 11 10 10 7 8 7 4 4 7 3 11 2 6 4 2 4v3l5 3 11 9 21 7 5 3 12 3 9 6 19 8 10 4 8 3 13 4 27 12 10 7 7 6 7 11 2 9v12l3 8 3 4 3 9 2 10 3 14 6 24 6 25 3 14 10 42 2 7 2 9 12 49 2 10 7 28 4 17 3 14 10 42 2 7 2 12 5 21 8 43 3 19 4 35 1 10v50l-1 11v17l3 20v9l-3 10-6 10-9 11-8 9-7 9-11 12-8 7-10 9-6 4-13 9-21 11-18 6-10 2-20 1-6-2-3-5-2-7-4-5-8-1-16 8-8 6-21 21-13 8-11 4-16 4-5 5-4 11-7 7-14 5-15 4-1 5 8 20 5 19 3 14 2 20 3 5 3 23v14l-2 24-2 21v46l1 16 2 6h12l62-4 60-3 12-1 92-2h116l92 2 35 2 26 1 19 3 10 3 5 5-2 4-7 2-54 3-71 2h-510l-29 1-12-2h-14l-16 6-10 4-21 5-18 3-46 3-36 1h-115l-49-2-43-2-60-5-20-3-28-7-16-8-9 1-18 3-20 2-49 3-46 2-15 1h-72l-36-3-16-3-3-3 1-4 2-1 14-2 49-6 44-2 118-2 7-2 3-4v-6l-5-7v-15l4-16 6-17 5-12 8-18 8-17 5-12 4-9 6-17 3-13 3-6 3-14 7-18 6-18 8-16 4-9 4-12 8-23 8-16 7-23 4-12 1-12v-10l-1-13-4-17-12-35-2-9-3-8-7-25-2-9-2-20-2-13-3-24-4-13-2-6v-12l-19-9-11-7-12-7-9-7v-2l-4-2-19-19-12-3-9-4-21-7-9-2-9-4-7-2-13-1-14-4-10-4-11-7-10-8-9-9v-2h-2l-9-11-6-9-8-14-1-5v-44l4-16 4-9 3-9 3-16 4-13 6-10 8-14 16-22 7-8 4-4h2l2-4 16-15 13-8 8-3 4-1v-2h2l2-4 5-5 7-4 9-13 7-12 5-12 5-10 4-7 9-14 10-13 6-7 7-11 13-16 12-14 10-10 16-14 22-14 5-4 7-9 3-4h2l2-4 7-11 5-9 6-7 33-12 9-3 8-2 26-9 20-5 24-7 27-6 11-3 10-2 12-3-1-7-4-8-8-24-4-21-4-38-4-24-4-15-3-6-5-2-2-6-1-5-8-22-3-9-3-12-8-20-1-6-3 1-2 8-1 42-4 11-6 8-7 6-10 4-15 2-20-1-17-4-14-7-10-10-6-10-4-10-1-6v-22l4-16 7-16 6-11 7-10 10-13 6-7 5-4 8-14 5-10 1-5-2-5 1-7 6-8 8-7h2l2-4 13-11 11-9 13-10 8-6 18-13 18-12 10-6 10-5 12-7 16-7 13-6 17-5 5-1 7 2 5 6 5 22 5 10 4 4h9l8-7 10-12 4-6 4-5 8-7 8-6 12-7 14-5 16-4zm126 37-1 1 1 7 4 8 6 9 3 7 1 6 1 20 2 22-2 13-5 5-11 8-1 3 1 3 13 5 5 1h9l9-4 5-5 1-4v-14l-2-20-2-31-5-15-6-8-7-7-10-7-6-3zm-47 288-3 7-2 17-5 5 1 22 3 3 5-2 5-5 4-5 3-7 1-5v-11l-3-6-9-1 1-3v-9zm92 1322-10 3v4h9l7-3v-3zm263 5-41 1-55 3 2 2 9 2 27 1h221l21-2 8-2v-1l-37-3-31-1zm-1078 6-14 2-6 2 5 4 10 1h26l22-1 34-4 14-1h44l9-1v-1l-70-1z" fill="#060606"/>
<path transform="translate(1117,631)" d="m0 0h2l24 44 11 21 2 7v12l-10 31-1 11h5l5-12 6-11 10-13 5-3 5 1 8 7 12 10 18 12 25 14 29 13 37 14 35 13 16 8 9 7 6 8 3 7v11l-4 7-5 4-5 2h-11l-1 4 4 4 9 3h13l8-2 4 15 30 125 38 160 12 54 8 44 4 31 2 24v47l-2-2-8-20-8-14-10-14-9-10-6-7-11-9-14-10-14-8-17-8-18-6-23-5-16-2h-36l-15 2v6l10 6 20 8 25 7 44 9 23 6 16 6 19 10 10 8 7 6 8 10 8 14 5 11 6 19 7 32 1 6v9l-3 8-6 8-11 13-12 14-24 24-13 10-18 11-16 7-14 4-6 1h-17l-3-8-6-15-11-21-10-14-9-11-9-10-11-12-16-15-12-11-8-7-10-9-12-11-22-22-7-9-1-2v-7l7-14 7-9 9-10 13-10 17-9 15-5 12-2 22-1v-7l-9-2-13-3-8-1h-19l-1-2-5-52-6-49-8-52-9-48-9-39-9-36-1-2h-5l-1 2v44l4 37 6 36 12 56 10 45 7 41 3 26v11l-16 10-13 12-10 12-8 14-2 5v11l-5 1h-218l-6-5-12-16-11-13-9-11-32-32-8-7-17-14-14-9-4-1h-17l-103 18-35 6h-4l-2-7 14-55 1-1 13-1 10-5 6-7 1-8-3-6-5-3-9-1-8 3-7 8h-1l1-20 4-27 9-43 7-36 2-16 1-35 1-12 1-3 5 2 9 3h9l9-3 6-5 3-7-1-8-4-6-7-4-3-1h-9l-12 4 2-20 5-33 6-26 6-19 8-19 9-14 4-5 10-6 29-6 31-7 35-10 36-12 30-11 39-16 30-13 17-8 17-10 12-9 11-10 9-12 8-15 5-16 2-12 1-2 5-3 9-14z" fill="#FDFDFD"/>
<path transform="translate(645,1549)" d="m0 0 10 2 8 1 30 1 14 3 21 10 10 5 11 3h17l23-6 17-5 13-2h22l25 3 46 7 38 4 32 2h69l43-3 71-9 10-1h36l8 2 4 4-1 6-5 5-9 4-26 6-2 1 1 7 8 20 6 20 4 19 1 10-3 1 3 7 3 10 2 3 2 13v18l-3 35-1 17v36l1 25-32 3-28 2h-72l-14-9-27-14-26-10-23-7-26-6-25-4-34-3-20-1h-24l-43 2-42 4-69 8-41 7-34 8-30 10-10 5-5 6-24 4-38 3-90 5h-25v-1l22-1 34-4 14-1h44l-61-1v-1l71-1 8-2 5-4 4-10 11-40 11-35 12-36 14-39 20-52 21-53 5-10 4-4zm551 277-10 3v4h9l7-3v-3z" fill="#FDFDFD"/>
<path transform="translate(832,653)" d="m0 0 4 1v18l-2 12-1 13 2 12 5 10 4 3h6l-1-8v-14l3-10 5-8 4 4 5 13 6 24 7 20 14 30 2 5 3 1h11l16-3h6l-2 2-31 11-40 12-32 8-36 7-12 5-10 9-9 14-9 20-7 22-6 26-6 42-3 27-4 13-1 31-1 18-1 13-8 39-9 41-3 20-1 10v26l3 7-15 57-2 3-11-14-13-16-11-15-7-15-2-12 1-4h11l3-1 1-2-1-45-1-23-3-9-9-10-17-17-8-7-12-12-10-6-16-3-17-2v-7l-9-3-24-10-14-6-16-4h-13l-13 4-11 6-15 13-20 20-7 8-14 17-10 16-3 12 1 12 6 18 10 19 9 12 7 7-2 1-11-6-13-10-13-13-12-16-7-14v-12l1-12-1-16 3-14 7-19 6-25 5-12 11-16 13-18 9-11 11-12 7-7 13-10 8-4 4-1h9l18 6 27 11 18 8 6 1v-5l-11-10-11-7-16-8-16-5-7-2 4-3 5-2h12l11 4 11 8 7 7 11 14 13 18 15 23v2l6-1v-13l-4-20-6-15-8-15-9-11-9-10-13-10-14-8-8-4 3-9 10-18 13-18 13-15 12-13 22-22 8-7 35-35 5-6 1 2-6 21-4 25-1 17 1 26 4 24 6 22 8 20 2 4 3 1 3-3-3-51-1-25v-34l2-32 4-28 5-21 4-6 12-6 47-16 41-12 34-9 35-8z" fill="#E7E6E5"/>
<path transform="translate(1020,187)" d="m0 0h32l28 4 31 7 26 8 18 8 12 8 12 11v3l-9-9-10-7-6-3h-3l1 7 4 8 6 9 3 7 1 6 1 20 2 22-2 13-4 5-11 8h-2v6l-20-9-19-8-15-5h-12l-4 1-1 9 3 6 5 5 10 6 22 8 5 3 1 2v13l-8 97-10-3-35-10-29-6-30-4-33-2h-20l-33 2-30 4-23 5-27 9-19 10-12 9-9 8-5 5-11-29-5-19-5-27v-7h-2l1-3 24-11 30-11 30-9 57-15 35-10 20-7 19-9 13-9 6-5 5-8-1-6-4-2-15 1-26 5-21 6-32 12-30 13-71 32-18 8-15 9-10 8-7 7-7 12-3 9-1 7-1 41-3 10-5 7-8 5-12 3h-19l-17-3-12-5-8-6-7-8-5-11-2-8v-20l4-15 7-16 9-15 11-16 9-10 10-7 12-5 15-4 25-3 3-1v-4l-41-11-7-3-1-5 7-8 11-9 15-13 14-11 13-10 17-12 17-11 15-9 16-9 24-11 21-8 8-1 3 4 4 22 5 10 8 7 3 1h11l8-4 8-8 10-14 9-10 11-9 16-8 17-5z" fill="#FDFDFD"/>
<path transform="translate(946,439)" d="m0 0h47l32 3 29 5 36 9 29 10 4-1-3 9-3 7-2 7 1 3-8-1-7 3-7 6-6 12-3 14v15l1 13v17l-4 16-7 17-17 35-13 28-7 11-9 9-13 8-65 30-10 4-6 1-7-2-10-8-13-12-8-7-16-15-14-15-11-14-10-15-10-19-6-18-5-25-6-49-5-22-6-15v-3l7-8 8-8 15-10 15-7 21-7 27-6 32-4z" fill="#FDFDFD"/>
<path transform="translate(710,1292)" d="m0 0 21 3h37l13-1 1 5-3 50v14l3 8 6 8 11 7 12 5 8 2h29l5 5 5 4 3 1 13 1 6 4 5 8 8 15 7 6 4 2 7 1 27 1 31 6 50 12 60 12 169 30 38 5 23 2h23l5 12-1 3-5-7-8-1-16 8-8 6-21 21-13 8-11 4-16 4-5 5-2 4-1-9-3-5-10-4-9-1h-29l-36 4-50 6-22 2-18 1h-73l-42-3-40-5-40-6-11-1h-30l-25 5-23 7-5 1h-14l-12-4-26-13-16-4-29-1-14-2-4-2 1-9 6-21 8-22 8-16h5l11 11 9 11 5 7 7 16 6 9 10 6 12 3h12l15-3 17-8 11-9 7-9 5-10 2-7v-15l-4-13-6-9-9-8-3-2-9-25-11-26-16-33-11-21-16-27-11-17z" fill="#FDFDFD"/>
<path transform="translate(842,1251)" d="m0 0h13l12 7 10 9 11 9 17 16 20 20 7 8 12 14 13 17 4 5 6 3h60l88-1 52-1 28-1 7 9 28 28 8 7 12 11 8 7 10 9 12 11 16 16 9 11 13 17 10 17v1h-17l-40-4-45-7-145-26-65-13-58-14-19-3-29-1-7-3-6-8-8-15-5-6-9-4-12-1-5-5-5-4-4-1-20 1-13-2-13-5-10-7-4-5-2-5v-14l3-47 8-3 31-7 5-3 2-4-1-4-18 2-24 3-25 2h-36l-14-2-9-4-4-4v-2l27-5z" fill="#FDFDFD"/>
<path transform="translate(804,724)" d="m0 0 16 1 16 4 20 8 26 13 12 25 1 3 3 1h11l16-3h6l-2 2-31 11-40 12-32 8-36 7-12 5-10 9-9 14-9 20-7 22-6 26-6 42-3 27-4 13-1 31-1 18-1 13-8 39-9 41-3 20-1 10v26l3 7-15 57-2 3-11-14-13-16-11-15-7-15-2-12 1-4h11l3-1 1-2-1-45-1-23-3-9-9-10-17-17-8-7-6-6-4-15-4-24v-24l4-16 7-11 8-7 8-5 16-5 19-5 12-5 8-6 6-9 2-5 1-6 2-32 2-16 7-26 8-24 8-20 5-12 7-12 6-11 13-17 8-8 14-10 8-4 12-3z" fill="#FDFDFD"/>
<path transform="translate(1366,1287)" d="m0 0h7l27 7 16 6 19 10 10 8 7 6 8 10 8 14 5 11 6 19 7 32 1 6v9l-3 8-6 8-11 13-12 14-24 24-13 10-18 11-16 7-14 4-6 1h-17l-3-8-6-15-11-21-10-14-9-11-9-10-11-12-16-15-12-11-8-7-10-9-12-11-22-22-7-9 1-3 27 2 19 4 16 5 16 9 13 12 1 1 2-16 4-15 8-16 8-13h2l2-4 11-11 13-9 16-7z" fill="#FDFDFD"/>
<path transform="translate(889,203)" d="m0 0 5 1 2 3 4 22 5 10 8 7 3 1 11 1v8l-7 16-5 6-11 8-10 5-17 5-31 6-16 5-10 6-4 2v2h-2l-7 14-1 3v13l4 8 7 6 4 2-2 2-18 8-15 9-10 8-7 7-7 12-3 9-1 7-1 41-3 10-5 7-8 5-12 3h-19l-17-3-12-5-8-6-7-8-5-11-2-8v-20l4-15 7-16 9-15 11-16 9-10 10-7 12-5 15-4 25-3 3-1v-4l-41-11-7-3-1-5 7-8 11-9 15-13 14-11 13-10 17-12 17-11 15-9 16-9 24-11 21-8z" fill="#E7E6E5"/>
<path transform="translate(645,1549)" d="m0 0 10 2 8 1 30 1 11 2v13l-2 24-3 20-6 28-8 34-4 21-6 31-6 22-8 20-10 15-9 10-14 10-20 9-15 5-8 3-14 4-12 2h-16l-1-2 10-37 11-36 12-36 13-37 21-55 23-58 5-10 4-4z" fill="#E7E6E5"/>
<path transform="translate(579,1095)" d="m0 0h8l10 3 11 7 7 8 4 8 4 17 5 23 4 10 4 6v20l4 12 7 13 9 12 13 16 10 13 14 19 10 15 13 20 16 27 13 24 15 30 13 30 4 9-1 2-11-3h-18l-11 3-10 5-7 6h-2l-2 4-7 10-6 16-2-3-15-35-26-62-18-43-21-49-9-24-4-11-6-9-7-10-11-13-10-13-11-18-14-26-12-22 1-2 9 11 10 16 12 25 8 12 8 8 12 6h9l6-4 1-3v-10l-8-24-17-43-10-29v-8z" fill="#FDFDFD"/>
<path transform="translate(550,1048)" d="m0 0 5 2 11 2 24 3 10 5 45 45 3 6 1 9 1 55-5-1-5-5-4-8-5-21-4-17-7-14-8-9-11-7-12-4h-11l-5 3-2 4v8l5 17 9 25 15 38 6 19v7l-2 2-9-1-8-5-7-7-8-14-9-21-6-11-8-11-14-18-8-13-6-18-6-1-4 3-1 8 8 16 15 28 19 37 12 21 12 17 12 14 9 14 3 8v5l-16-8-18-11-11-8-10-9-9-9-10-14-11-19-15-27-5-8h-5l3 9 15 29 10 17-4 1-15-5-15-8-12-9-11-11-9-13-3-6 1-8v-9l-5-9 6-8 4-13 4-10 7-6 10-6 4-6 3-9 4-3 16-3 3-3 2-4 26-6z" fill="#E7E6E5"/>
<path transform="translate(1223,951)" d="m0 0 3 3 6 14 5 16 3 16 4 36 3 33 6 43 6 29 10 40 7 23 7 19 6 10 6 5 13 4 8 1 49 1 16 3 14 7 8 6 8 11v3l-6-2-19-9-18-6-23-5-16-2h-36l-15 2v6l10 6 20 8 25 7 35 7-2 2-16 6-9 5-12 9-10 10-1 2h-2l-2 5-8 13-6 14-4 18-1 11-7-6-11-9-16-8-21-6-20-3-20-1v-7l7-14 7-9 9-10 13-10 17-9 15-5 12-2 22-1v-7l-9-2-13-3-8-1h-19l-1-2-5-52-6-49-8-52-9-48-9-39-6-24 2-12 5-20 6-18z" fill="#E7E6E5"/>
<path transform="translate(822,1798)" d="m0 0h23l14 3 19 7 15 6 17 4 27 2 37 2 30 3 25 5 13 6v2l-44 4-51 4-61 3h-73l-47-3-40-5-33-6-26-6-2-2 15-4 9-1h61l15-3 13-5 24-11 15-4z" fill="#FEE085"/>
<path transform="translate(604,1268)" d="m0 0h2l7 20 15 36 19 46 40 96 3 9-8-6-5-3h-6l-5 4-8 16-10 25-6 22-1 10-9 6-8 16-17 43-15 39-13 35-13 37-16 49-14 50-2 4-2-8-4-5v-15l4-16 6-17 5-12 8-18 8-17 5-12 4-9 6-17 3-13 3-6 3-14 7-18 6-18 8-16 4-9 4-12 8-23 8-16 7-23 4-12 1-12v-10l-1-13-4-17-12-35-2-9-3-8-7-25-2-9-2-20-2-13-3-24-4-13-2-6v-13z" fill="#E7E6E5"/>
<path transform="translate(1089,591)" d="m0 0h2v12l1 12v35l-2 16-5 17-8 15-11 12-8 8-18 12-23 12-30 13-30 12h-11l-38 5h-6l-8-15-12-29-5-18-5-19 1-3 6 7 8 7 9 9 8 7 14 12 10 6 9 1 9-2 67-31 16-8 9-7 8-9 9-16 13-27 13-28z" fill="#FDFDFD"/>
<path transform="translate(840,463)" d="m0 0h2l3 17 9 62 8 56 4 26 4 16 7 14 1 3 3 1 5 5 8 6 23 10 21 8 13 7 5 4 6 9 2 5v6l-20 9-9 2-7-2-10-8-13-12-8-7-16-15-14-15-11-14-10-15-10-19-6-18-5-25-6-49-5-22-6-15v-3l7-8 8-8 15-10z" fill="#E7E6E5"/>
<path transform="translate(1202,1071)" d="m0 0h1l6 36 12 56 10 45 7 41 3 26v11l-16 10-13 12-10 12-8 14-2 5-1 8h-60l-51-5v-1l35-1 16-3 10-3 11-6 12-11 7-10 9-20 6-19 6-25 4-27 2-16 2-42 1-68z" fill="#E7E6E5"/>
<path transform="translate(452,1119)" d="m0 0 10 3 26 7 41 10 11 22 10 19 11 20 12 18 9 11 11 14 6 11 1 9-16-8-18-11-11-8-10-9-9-9-10-14-11-19-15-27-5-8h-5l3 9 15 29 10 17-4 1-15-5-15-8-12-9-11-11-9-13-3-6 1-8v-9l-5-9z" fill="#FDFDFD"/>
<path transform="translate(490,1024)" d="m0 0h10l13 3 18 8 11 5v2l-38 10-2 1-2 6-16 3-7 6-4 11-6 5-10 6-4 5-4 11-4 12-5 6-1 6 3 6 2 3-1 16 7 14 9 11 5 5 11 10 15 9-4 1-15-4-9-4-10-3 2-1-1-5-15-8-11-10-9-12-9-16-7-17-1-4v-13l5-10 8-10 11-12 7-8 7-7 7-8 10-9 11-10 12-7z" fill="#E7E6E5"/>
<path transform="translate(909,355)" d="m0 0h2l2 5v8l-4 6-13 8-16 7-18 8-11 7-7 8-4 10-1 6 1 17 1 6 2 2-15 8-12 9-9 8-5 5-11-29-5-19-5-27v-7h-2l1-3 24-11 30-11 30-9z" fill="#E7E6E5"/>
<path transform="translate(790,1795)" d="m0 0h10l-3 2-26 12-13 4-15 2h-60l-15 3-12 5-5 3-1 5 7 3 30 7 33 6 41 5 40 3 27 1h53l52-2 72-5 12-1h10l-3 2-24 5-26 3-39 2-36 1h-95l-61-2-55-3-39-3-23-3-26-6-14-6 1-4 10-5 31-10 26-6 41-7 48-6z" fill="#FAFAFA"/>
<path transform="translate(579,1095)" d="m0 0h8l10 3 11 7 7 8 4 8 4 17 5 23 4 10 4 6v20l4 12 7 13 9 12 13 16 10 13-3 8-5-2-5-3v-2l-4-2-8-7-14-14v-2h-2l-9-12-7-9v-2h-2l-4-6v-2l-3 1-2-12-9-25-15-38-10-29v-8z" fill="#E7E6E5"/>
<path transform="translate(454,939)" d="m0 0h3v2h-2v2h-2l-2 4-9 9-7 8-10 12-1 2h-2l-1 4h-2l-2 4-12 22-5 14-3 16v18l2 10 4 11 4 7-2 5-7 11-3 12 1 12 6 18 10 19 9 12 7 7-2 1-11-6-13-10-13-13-12-16-7-14v-12l1-12-1-16 3-14 7-19 6-25 5-12 11-16 13-18 9-11 11-12 7-7z" fill="#FCFCFC"/>
<path transform="translate(766,1449)" d="m0 0h11l5 3 5 10 2 8v13l-4 10-10 11-14 8-14 4-10 2h-13l-5-5-2-6v-9l3-12 6-12 9-10 7-6 12-6z" fill="#FDFDFD"/>
<path transform="translate(411,1092)" d="m0 0 4 2 5 5 6 5 13 8 6 3-1 4-4 5-1 6 3 6 2 3-1 16 7 14 9 11 5 5 11 10 15 9-4 1-15-4-9-4-10-3 2-1-1-5-15-8-11-10-9-12-9-16-7-17-1-4v-13l5-10z" fill="#FDFCFC"/>
<path transform="translate(672,1473)" d="m0 0h5l11 11 9 11 5 7 1 4-1 5v21l2 15-8-1-29-1-14-2-4-2 1-9 6-21 8-22z" fill="#E7E6E5"/>
<path transform="translate(627,1302)" d="m0 0 3 3 2 5h2l4 6v2h2l7 11 9 13 13 22 11 20 14 31 5 12 8 21 4 11-6 12-3 9-2-3-15-35-26-62-18-43-14-33z" fill="#E7E6E5"/>
<path transform="translate(1006,302)" d="m0 0h5v3l-13 11-19 10-22 8-35 10-47 12-40 12-8 3-3-1 37-17 29-13 37-16 27-10 25-7 20-4z" fill="#FCFCFC"/>
<path transform="translate(872,688)" d="m0 0 5 5 12 11 7 7 8 7 14 12 10 6 9 1 9-2 13-6 4 1-2 1-2 6-7 9-10 7-6 3-11 2h-13l-16-3-3-1-10-23-6-21-5-19z" fill="#E7E6E5"/>
<path transform="translate(790,1795)" d="m0 0h10l-3 2-26 12-13 4-15 2h-60l-15 3-12 5-5 3-1 5 7 3 30 7 38 7v2h-13l-30-1-14-1-15-4-8-6-4-6v-9l6-8 12-3 43-7 68-8z" fill="#FDE089"/>
<path transform="translate(677,387)" d="m0 0 2 1-4 13-4 20-1 11v24l4 13 8 9 8 4 4 1h18l13-4 9-5 7-6 4-6 5-14 4-27 6-16 2-3h2l1-3 1 3-5 10-2 6-1 7-1 41-3 10-5 7-8 5-12 3h-19l-17-3-12-5-8-6-7-8-5-11-2-8v-20l4-15 7-16z" fill="#FCFCFC"/>
<path transform="translate(860,1792)" d="m0 0h38l26 2 33 5 36 9 28 10 2 2-9-1-22-3-36-3-38-2-18-3-17-6-20-8z" fill="#FAF9F9"/>
<path transform="translate(657,1114)" d="m0 0 7 5 8 11 3 10v12l-4 14-8 22-1 4v18l6 17 6 13-1 2-11-13-11-15-7-15-2-12 1-4h11l3-1 1-2-1-45z" fill="#E7E6E5"/>
<path transform="translate(1303,1257)" d="m0 0h17l21 2 24 5 21 7 17 8 16 10 6 5-2 1-21-8-26-7-48-10-27-9-4-3z" fill="#E7E6E5"/>
<path transform="translate(498,885)" d="m0 0 1 2v5l10 3 15 8 13 10 11 11 9 13 8 16 4 11 1 7-5-5-8-12-13-17-11-13-13-10-10-4-4-1h-14l-11 4-2-1 5-5 7-10z" fill="#E7E6E5"/>
<path transform="translate(558,1152)" d="m0 0 9 5 10 8 10 9 8 8 4 6 3 2 4 13v7l-2 2-9-1-8-5-7-7-8-14-9-21-5-9z" fill="#FCFCFC"/>
<path transform="translate(780,398)" d="m0 0h6l5 5 4 5 5 13 3 19 2 16 1 24-4 3-11-29-5-19-5-27v-7h-2z" fill="#FCFCFC"/>
<path transform="translate(739,676)" d="m0 0h5l-1 2-10 5-15 8-28 13-32 16-7 3 1-9 5-9 12-6 47-16z" fill="#FCFCFC"/>
<path transform="translate(637,743)" d="m0 0h1l-1 13-2 27v60l2 32-2 1-6-21-3-18-1-10v-28l3-24 6-23z" fill="#E7E6E5"/>
<path transform="translate(832,1771)" d="m0 0h12l20 4 12 5 4 3-54 2-28 2h-14v-2l24-9z" fill="#FEE086"/>
<path transform="translate(1206,1024)" d="m0 0 2 4 11 51 8 43 8 50 2 15v6h-1l-18-80-7-37-4-28-1-12z" fill="#E7E6E5"/>
<path transform="translate(860,1792)" d="m0 0h38l9 2 17 7 20 7 6 2v2h-14l-26-2-16-4-31-12z" fill="#FDE087"/>
<path transform="translate(620,740)" d="m0 0 2 1-36 36-8 7-36 36-9 11-11 14-12 19-4 5 1-4 4-8 6-9 10-14 9-10 6-10 14-18 9-10 7-8 7-7 16-14 22-14z" fill="#E7E6E5"/>
<path transform="translate(1408,1831)" d="m0 0h51v1l-41 1-53 3 9 2v1h-100l-9-1v-1l81-4z" fill="#E7E6E5"/>
<path transform="translate(1149,212)" d="m0 0 6 2 12 8 12 11v3l-9-9-10-7-6-3h-3l1 7 4 8 6 9 3 7 1 6 1 20 2 22-2 13-4 5-11 8h-2v6l-5-2 3-6 13-10 3-7-1-31-2-7-2-14-8-19-4-11v-7z" fill="#E7E6E5"/>
<path transform="translate(792,1462)" d="m0 0 3 3 3 9 1 11-3 11-5 9-6 7-13 9-15 6-5 1h-18l-6-2v-1l24-4 16-6 11-7 7-7 5-8 3-10v-9z" fill="#F9F9F9"/>
<path transform="translate(1087,313)" d="m0 0 9 1 24 9 26 12-3 1-8-2-1 8v16h-1l-1-15-4-6-11-5-19-7-8-6-3-3z" fill="#FBFBFA"/>
<path transform="translate(1107,497)" d="m0 0h5l3 6 2 15v15h-1l-2-13-1-2-9-1v-4-8l-2 6-2 17-3 1-2 4 1 24 4 2-6 1-1-13v-25l3-11 5-9z" fill="#E7E6E5"/>
<path transform="translate(823,552)" d="m0 0 2 2 8 24 5 19 1 7v18h-3l-6-18-5-25-2-16z" fill="#FCFCFC"/>
<path transform="translate(1583,1831)" d="m0 0h37l82 3 19 1v1l-26 2-24 1h-34v-1l11-2-18-2-16-1-31-1z" fill="#E7E6E5"/>
<path transform="translate(538,1833)" d="m0 0h2l2 4 3 2-64 4-54 3h-25v-1l22-1 34-4 14-1h44l-61-1v-1l77-1 4 1z" fill="#E7E6E5"/>
<path transform="translate(711,324)" d="m0 0 12 5 19 5-1 2-19 4-16 7-9 6 2-5 10-19z" fill="#E7E6E5"/>
<path transform="translate(752,971)" d="m0 0h6l6 4 2 5-3 5-9 4-9-1-6-4-1-4 8-7z" fill="#FBFBFB"/>
<path transform="translate(1105,589)" d="m0 0h1l2 14v13l-3 17-3 10h-1l-2-46z" fill="#FAF9F9"/>
<path transform="translate(359,1838)" d="m0 0h13v1l-9 3 3 2 10 1 22 1v1h-33l-37-2-9-1 3-2z" fill="#E7E6E5"/>
<path transform="translate(781,1608)" d="m0 0h5l6 6v7l-4 6-7 1-6-5v-7l4-6z" fill="#FFE083"/>
<path transform="translate(883,348)" d="m0 0h12l3 2-37 10-29 9-5 2-3-1 33-15 5 1 17-7z" fill="#E7E6E5"/>
<path transform="translate(1156,684)" d="m0 0 3 3 5 8 10 9 10 7-3 1h-9l-6 4-4 4v-19l-5-13z" fill="#FAFAFA"/>
<path transform="translate(723,1180)" d="m0 0 8 1 2 3-1 5-5 4-7 3h-7l-1-2 5-10 3-3z" fill="#FAFAFA"/>
<path transform="translate(781,260)" d="m0 0 2 1-10 9-14 11-3 1v2l-14 10-7 6h-2v2l-5 4-1 2h-2v2l-8 8h-2l1-5 13-12 11-9 13-11 17-13z" fill="#F8F8F7"/>
<path transform="translate(844,654)" d="m0 0 4 5 9 11-5 4-6 10-4 10h-1v-8l3-22z" fill="#E7E6E5"/>
<path transform="translate(604,1268)" d="m0 0h2l3 9-3 22h-2l-2-9-4-8v-7l1-5z" fill="#FCFCFC"/>
<path transform="translate(799,1666)" d="m0 0 5 1 4 4v7l-5 3-9 1-1-1v-8l4-6z" fill="#FFE083"/>
<path transform="translate(1197,723)" d="m0 0 6 2 11 2 6 4 2 4v3l5 3 9 7-2 1-14-8-14-10-9-7z" fill="#E7E6E5"/>
<path transform="translate(727,1463)" d="m0 0 2 1-8 11-5 11-3 10-1 7-2-1-1-4v-10l4-10 6-8z" fill="#F6F6F6"/>
<path transform="translate(1238,751)" d="m0 0 6 1 17 6 3 2 12 3 9 6 16 7-3 1-28-11-20-9-12-5z" fill="#E8E7E6"/>
<path transform="translate(889,203)" d="m0 0 5 1 2 3v7l-13-2-12-1 3-3z" fill="#FBFBFB"/>
<path transform="translate(1322,1512)" d="m0 0 12 1 3 7-1 3-5-7-8-1-16 8-8 6-16 16v-3l7-8 12-12 11-6 7-3z" fill="#E7E6E5"/>
<path transform="translate(444,935)" d="m0 0 2 1-12 11-14 14h-2l-2 4-14 18-10 14-1-2 9-13 10-14 7-8 4-4h2l2-4 16-15z" fill="#E7E6E5"/>
<path transform="translate(1199,1822)" d="m0 0 5 1v10l-18 2h-7l1-6 8-4 8-1zm-3 4-10 3v4h9l7-3v-3z" fill="#E7E6E5"/>
<path transform="translate(1301,1835)" d="m0 0h18v3h-54v-1z" fill="#F8F8F7"/>
<path transform="translate(781,260)" d="m0 0 2 1-10 9-14 11-3 1v2l-7 5-2-1 6-7 17-13z" fill="#F9F8F8"/>
<path transform="translate(454,1188)" d="m0 0h1v5h7l2 2 8 2v2l8-1 10 6-4 1-15-4-9-4-10-3 2-1z" fill="#E7E6E5"/>
<path transform="translate(1097,508)" d="m0 0h2v19l-3 1-2 4h-1v-10l3-11z" fill="#FBFBFA"/>
<path transform="translate(857,355)" d="m0 0 3 1v2l-9 3v2l-24 8-3-1z" fill="#F8F8F7"/>
<path transform="translate(1156,684)" d="m0 0 3 3 5 8 10 9 10 7-3 1-7-1-1-4-8-6v-2h-2l-1 2-5-13z" fill="#E7E6E5"/>
<path transform="translate(1397,1284)" d="m0 0h11l6 2 11 8-2 1-21-8-5-2z" fill="#F7F7F6"/>
<path transform="translate(1107,497)" d="m0 0h5l3 6v7l-6-1-1-6 2-2-5 1z" fill="#FBFBFB"/>
<path transform="translate(1029,1831)" d="m0 0 5 1 8 4v2l-8 1h-9l3-4z" fill="#F5F5F5"/>
<path transform="translate(749,1441)" d="m0 0h7l-4 2-14 5-12 6-2-1 8-6 12-5z" fill="#F5F4F4"/>
<path transform="translate(1100,566)" d="m0 0 2 1-2 3 1 6 6 2-6 7-2 2-1-2-1-15 1-3z" fill="#ECEBEA"/>
<path transform="translate(816,1619)" d="m0 0 5 1 1 1v6l-1 1h-5l-3-4 2-4z" fill="#FFE083"/>
<path transform="translate(1122,465)" d="m0 0v3l-5 13-2 7 1 3-5-1 1-5 4-11 2-2 1-5z" fill="#E7E6E5"/>
<path transform="translate(1386,844)" d="m0 0 2 1 3 8 1 2-11 4-2-1 6-9z" fill="#F7F6F6"/>
<path transform="translate(329,1841)" d="m0 0h8l6 3v1h-15l-9-1 3-2z" fill="#F7F7F7"/>
<path transform="translate(444,935)" d="m0 0 2 1-12 11-13 13-1-3 3-1 2-4 16-15z" fill="#A6A5A5"/>
<path transform="translate(813,1704)" d="m0 0h5l1 7-3 2-4-1-1-5z" fill="#FFE083"/>
<path transform="translate(1135,331)" d="m0 0 9 3 2 2-11-2-1 8v16h-1l-1-15-2-6z" fill="#E7E6E5"/>
<path transform="translate(1205,729)" d="m0 0h5l3 2 5 2 1 5h-3l-11-8z" fill="#F9F9F9"/>
<path transform="translate(1257,1275)" d="m0 0h10l-2 2-13 4h-2v-5z" fill="#E7E6E5"/>
<path transform="translate(768,412)" d="m0 0h2l5 13-1 3-3-8v-2l-3 1-2 8h-1v-7z" fill="#EAE9E8"/>
<path transform="translate(688,1796)" d="m0 0h12l-1 2-13 2h-5l-1-2z" fill="#FBE092"/>
<path transform="translate(847,362)" d="m0 0 1 2-21 7-3-1 15-7z" fill="#E7E6E5"/>
<path transform="translate(750,284)" d="m0 0m-2 1 2 1-4 5-11 9h-2l2-4z" fill="#F7F6F6"/>
<path transform="translate(695,1794)" d="m0 0h13l7 1v1l-15 1-9-1z" fill="#E7E6E5"/>
<path transform="translate(963,199)" d="m0 0 2 1-18 18v-3l5-6 8-7z" fill="#888787"/>
<path transform="translate(770,1723)" d="m0 0 4 2-1 4-5 1-2-4z" fill="#FFE083"/>
<path transform="translate(508,1212)" d="m0 0 12 2 5 2 5 7-4-2-4-4-12-3z" fill="#E7E6E5"/>
<path transform="translate(681,1796)" d="m0 0h7l-4 2-3 2-7 2-4-1z" fill="#E7E6E5"/>
<path transform="translate(767,1722)" d="m0 0 7 1 2 5-2 2-3-1 2-1v-3l-3-1-3 2 1 4-3-1v-5z" fill="#E7E6E5"/>
<path transform="translate(749,1441)" d="m0 0h7l-4 2-13 4-1-3z" fill="#F1F0F0"/>
<path transform="translate(1114,600)" d="m0 0h1l3 17h-4z" fill="#E7E6E5"/>
<path transform="translate(861,1734)" d="m0 0h4l1 5-5 1-1-4z" fill="#FFE083"/>
<path transform="translate(775,401)" d="m0 0h2v13l-2-3-2-7z" fill="#F8F8F8"/>
<path transform="translate(727,1463)" d="m0 0 2 1-5 6-4 2-4 3 2-4z" fill="#F1F0F0"/>
<path transform="translate(1386,844)" d="m0 0 2 1 3 8 1 2h-4v-3h-2l-1-3z" fill="#E7E6E5"/>
</svg>
