<?xml version="1.0" standalone="no"?>
<!DOCTYPE svg PUBLIC "-//W3C//DTD SVG 20010904//EN"
 "http://www.w3.org/TR/2001/REC-SVG-20010904/DTD/svg10.dtd">
<svg version="1.0" xmlns="http://www.w3.org/2000/svg"
 width="512.000000pt" height="512.000000pt" viewBox="0 0 512.000000 512.000000"
 preserveAspectRatio="xMidYMid meet">

<g transform="translate(0.000000,512.000000) scale(0.100000,-0.100000)"
fill="#E9E3B3" stroke="none">
<path d="M2371 5109 c-252 -34 -506 -139 -713 -295 -215 -160 -477 -496 -588
-752 -68 -157 -110 -333 -110 -463 0 -73 -61 -108 -95 -56 -13 20 -14 39 -5
120 27 262 105 478 254 702 36 54 66 104 66 110 0 25 -28 48 -56 47 -16 0 -63
-13 -104 -27 -381 -137 -696 -421 -869 -785 -59 -123 -93 -225 -123 -364 -32
-146 -31 -426 1 -576 68 -319 206 -579 431 -808 169 -174 180 -205 180 -534 0
-223 0 -227 22 -242 19 -14 78 -16 440 -16 244 0 418 4 418 9 0 5 -82 148
-183 318 -101 170 -187 318 -190 328 -10 26 18 65 48 65 13 0 32 -11 43 -25
11 -14 109 -176 218 -360 l199 -335 425 2 425 3 3 363 2 363 25 11 c19 8 31 8
50 0 l25 -11 2 -363 3 -363 425 -3 425 -2 199 335 c109 184 207 346 218 360
11 14 30 25 43 25 30 0 58 -39 48 -65 -3 -10 -89 -158 -190 -328 -101 -170
-183 -313 -183 -318 0 -5 174 -9 418 -9 362 0 421 2 440 16 22 15 22 19 22
242 0 318 15 367 154 506 244 243 386 503 457 836 32 149 32 429 1 576 -117
543 -480 964 -992 1148 -41 15 -88 28 -104 28 -28 1 -56 -22 -56 -47 0 -6 30
-56 66 -110 150 -227 226 -438 254 -705 10 -106 0 -140 -44 -140 -35 0 -56 30
-56 81 0 79 -29 238 -60 331 -64 190 -174 380 -337 583 -252 313 -544 498
-908 575 -117 24 -369 34 -484 19z"/>
<path d="M662 1054 c-22 -15 -22 -16 -22 -322 0 -333 5 -373 56 -474 34 -67
135 -168 202 -202 115 -58 46 -56 1658 -56 944 0 1501 4 1535 10 182 34 344
196 379 379 5 30 10 188 10 352 0 296 0 298 -22 313 -34 24 -3762 24 -3796 0z"/>
</g>
</svg>
